<svg xmlns="http://www.w3.org/2000/svg" width="400" height="600" viewBox="0 0 400 600">
  <g fill="none" stroke="#000" stroke-linecap="round" stroke-linejoin="round">
    <path d="M200 540c-2-56 0-105 16-154" stroke-width="6"/>
    <path d="M214 388c25 4 46 22 61 52" stroke-width="6"/>
    <path d="M211 420c-29-2-54 11-76 38" stroke-width="6"/>
    <path d="M202 343c-35 12-74 9-109-10" stroke-width="6"/>
    <path d="M215 334c35-4 72-21 97-50" stroke-width="6"/>
    <ellipse cx="200" cy="214" rx="52" ry="94" stroke-width="6"/>
    <ellipse cx="200" cy="214" rx="52" ry="94" transform="rotate(45 200 214)" stroke-width="6"/>
    <ellipse cx="200" cy="214" rx="52" ry="94" transform="rotate(90 200 214)" stroke-width="6"/>
    <ellipse cx="200" cy="214" rx="52" ry="94" transform="rotate(135 200 214)" stroke-width="6"/>
    <circle cx="200" cy="214" r="36" stroke-width="6"/>
    <path d="M168 214c11-13 22-19 32-19 15 0 27 7 39 24" stroke-width="5"/>
    <path d="M177 238c10 7 18 10 24 10 8 0 17-4 28-12" stroke-width="5"/>
  </g>
</svg>
